<svg width="153" height="124" viewBox="0 0 153 124" fill="none" xmlns="http://www.w3.org/2000/svg">
<path d="M36.8393 51.8736L36.8382 51.8745C37.5637 52.0067 37.9457 52.5541 38.1308 52.9833C38.3148 53.41 38.3922 53.9028 38.4327 54.3247C38.4744 54.7603 38.4835 55.2129 38.4903 55.5868C38.4977 55.9917 38.5031 56.2659 38.5245 56.4403L38.5252 56.4433C38.6952 57.858 38.7761 59.0405 39.0465 60.3294C39.0475 60.3341 39.0493 60.3388 39.0502 60.3435C39.4519 62.4046 40.3287 65.2872 41.1591 67.1584L41.9023 68.8572C42.5753 70.4045 43.1139 71.5927 44.2149 73.2823L44.2158 73.2833C44.8711 74.2914 45.4455 75.0423 45.9079 75.6202C46.3376 76.1572 46.7632 76.6532 47.0003 77.0248C47.124 77.2186 47.2778 77.4957 47.3239 77.827C47.3789 78.223 47.2691 78.5958 47.0311 78.8981C46.8307 79.1526 46.5662 79.3232 46.3503 79.4428C46.122 79.5694 45.8484 79.6911 45.5527 79.8151L45.5486 79.8167C44.0627 80.4321 43.2777 81.6776 42.1202 83.6368C40.9905 85.5488 39.5988 87.9348 36.8493 90.1877C36.7935 90.2334 36.7331 90.2732 36.6688 90.3059C32.9729 92.1822 27.4771 92.8859 22.638 89.8986L22.638 89.8996C20.7146 88.7196 18.2272 87.3048 17.1039 84.8589L16.8543 84.296C15.7922 81.7948 15.4816 79.5154 15.8272 77.3424C15.2404 76.9712 14.6277 76.4669 14.0572 75.932C13.223 75.1498 12.3881 74.2234 11.7144 73.3486L11.7145 73.3477C10.7857 72.1471 10.1725 70.278 9.8319 68.5175C9.49378 66.7696 9.38696 64.9238 9.60055 63.6296C9.7585 61.1271 10.7786 57.8248 12.0026 55.7302L12.0038 55.7274C12.5241 54.8431 12.9836 54.1347 13.7913 53.8602C14.154 53.737 14.5259 53.7238 14.8178 53.7158C15.1402 53.707 15.4773 53.7056 15.9381 53.6666L15.945 53.6661C16.2677 53.6411 16.8202 53.5104 17.5265 53.3301C18.1785 53.1637 18.9401 52.961 19.5446 52.8601L19.5526 52.8588C22.4013 52.4057 24.9464 52.0302 27.915 51.9948L27.9218 51.9954C28.7579 51.9914 29.5964 52.0624 30.3958 52.1417C31.2109 52.2226 31.9691 52.3101 32.7192 52.3539L32.7261 52.3535C33.1011 52.3775 33.9272 52.2705 34.8108 52.1282C35.2406 52.0589 35.6077 51.9951 35.9329 51.9418C36.0858 51.9168 36.2276 51.8949 36.3409 51.8799C36.3967 51.8726 36.4579 51.8647 36.516 51.8603C36.5352 51.8588 36.6817 51.8445 36.8393 51.8736Z" fill="#67656B" stroke="black" stroke-width="2" stroke-linejoin="round"/>
<path fill-rule="evenodd" clip-rule="evenodd" d="M47.3117 22.061C46.3472 18.7343 46.6744 17.0076 45.0944 13.715C42.7691 8.90486 38.9522 5.02239 33.8819 3.17645C28.4825 1.20978 20.4825 1.35602 15.8393 4.73514C11.3638 8.01639 9.36463 14.7639 8.91418 20.1577C8.61876 23.6181 10.9428 25.9975 8.02635 28.8439C5.9731 31.1922 3.37741 32.9211 2.16662 36.112C0.720209 39.9239 2.16661 44.0892 4.11988 48.1664C5.28211 49.8354 9.80333 53.9702 11.5777 54.9027C13.7179 56.0499 17.7138 57.7203 19.9233 57.9163C23.7511 58.5481 30.1853 56.9616 34.1122 56.6873C35.8261 56.5499 36.9634 56.2692 38.6222 55.9909C39.3722 54.2479 39.0707 52.8389 39.6038 51.2346C40.0775 49.7833 40.357 48.2237 40.8469 46.8419C42.7021 41.7127 45.0155 36.5349 48.4325 32.1829C49.2514 31.1709 50.0028 30.1528 50.8646 29.1674C51.6732 28.2677 52.8787 27.2458 53.5257 26.3766C51.8729 24.3682 51.2181 23.8337 47.3117 22.061Z" fill="black"/>
<path fill-rule="evenodd" clip-rule="evenodd" d="M47.3117 22.061C46.3472 18.7343 46.6744 17.0076 45.0944 13.715C42.7691 8.90486 38.9522 5.02239 33.8819 3.17645C28.4825 1.20978 20.4825 1.35602 15.8393 4.73514C11.3638 8.01639 9.36463 14.7639 8.91418 20.1577C8.61876 23.6181 10.9428 25.9975 8.02635 28.8439C5.9731 31.1922 3.37741 32.9211 2.16662 36.112C0.720209 39.9239 2.16661 44.0892 4.11988 48.1664C5.28211 49.8354 9.80333 53.9702 11.5777 54.9027C13.7179 56.0499 17.7138 57.7203 19.9233 57.9163C23.7511 58.5481 30.1853 56.9616 34.1122 56.6873C35.8261 56.5499 36.9634 56.2692 38.6222 55.9909C39.3722 54.2479 39.0707 52.8389 39.6038 51.2346C40.0775 49.7833 40.357 48.2237 40.8469 46.8419C42.7021 41.7127 45.0155 36.5349 48.4325 32.1829C49.2514 31.1709 50.0028 30.1528 50.8646 29.1674C51.6732 28.2677 52.8787 27.2458 53.5257 26.3766C51.8729 24.3682 51.2181 23.8337 47.3117 22.061Z" fill="#88888A"/>
<path d="M135.119 81.3892C135.119 84.7161 134.238 87.8654 131.764 90.4009L131.763 90.4019C127.024 95.239 119.378 95.8241 114.045 91.5435V91.5425C111.896 89.8294 110.56 87.7549 109.545 85.8579C109.046 84.9257 108.598 83.9819 108.201 83.1978C107.79 82.3856 107.417 81.7129 107.021 81.1831L107.018 81.1802C106.669 80.7118 106.195 80.3482 105.629 79.9478C105.126 79.5916 104.423 79.1304 103.972 78.5337L103.583 78.02L103.891 77.4536C103.967 77.3121 104.087 77.153 104.182 77.0317C104.292 76.8904 104.429 76.7227 104.582 76.5405C104.888 76.1752 105.275 75.7289 105.668 75.2798C106.469 74.3646 107.277 73.4577 107.579 73.0903C109.071 71.2352 110.606 68.4333 111.86 65.479C113.116 62.5227 114.053 59.5024 114.391 57.2466V57.2456C114.556 56.1494 114.666 55.2095 114.757 54.6558C114.805 54.3589 114.863 54.0687 114.949 53.8179C115.034 53.5718 115.182 53.2501 115.486 53.0073C115.817 52.7433 116.186 52.6856 116.479 52.6938C116.747 52.7014 117.017 52.7656 117.241 52.8257C117.761 52.965 118.24 53.134 119.086 53.3345L119.527 53.4243C120.511 53.6 121.209 53.5454 122.505 53.5454C123.965 53.5454 124.909 53.6275 126.258 53.7251H126.264C129.408 53.9697 133.156 54.9197 136.111 55.9165H136.11C137.009 56.2154 137.288 56.3104 137.584 56.3579C137.736 56.3823 137.89 56.3942 138.13 56.4009L139.188 56.4146L139.885 56.4214L140.119 57.0776C140.238 57.4085 140.362 57.6383 140.509 57.8892C140.619 58.0768 140.76 58.3055 140.905 58.5854L141.051 58.8833L141.055 58.8911C141.964 60.9143 142.764 63.3603 142.699 65.7886L142.675 66.2739C142.457 69.1628 140.656 72.6231 138.66 74.5942L138.657 74.5962C137.812 75.4251 137.132 76.0033 136.628 76.4487C136.107 76.9092 135.82 77.1913 135.625 77.4868C135.265 78.0321 135.099 78.7908 135.119 81.3813V81.3892Z" fill="#67656B" stroke="black" stroke-width="2"/>
<path d="M121.185 1.60015C128.1 0.0443006 136.005 1.98132 140.357 8.0405L140.561 8.33235L140.562 8.33322C142.691 11.4543 143.864 15.0637 144.361 18.7239L144.361 18.7249C144.671 21.0187 144.556 22.5755 144.521 24.6947L144.523 24.6956C144.521 25.2985 144.469 25.943 144.423 26.55C144.374 27.1725 144.33 27.7642 144.326 28.3255C144.319 29.426 144.479 30.1478 144.834 30.5799L144.907 30.6625L144.91 30.6652C147.607 33.4805 149.758 36.0361 150.746 38.8516C151.762 41.7489 151.508 44.7905 149.726 48.4777C149.203 49.5631 148.169 51.116 147.057 52.5292C145.961 53.9225 144.678 55.3223 143.625 56.0076L143.626 56.0084C142.611 56.6753 141.023 57.2252 139.427 57.666C137.799 58.1161 136.041 58.484 134.606 58.7525L134.573 58.759L134.539 58.7635C131.466 59.1244 130.386 59.1078 127.511 59.1234L127.511 59.1244C127.509 59.1244 127.507 59.124 127.505 59.124L127.502 59.1243L127.502 59.1233C126.824 59.1313 126.092 58.9868 125.391 58.7981C124.679 58.6066 123.932 58.3513 123.225 58.1076C122.504 57.859 121.825 57.6232 121.2 57.4474C120.566 57.2693 120.06 57.1757 119.683 57.1751L119.682 57.1741C118.068 57.1779 116.833 56.97 115.922 56.4519C114.945 55.8955 114.473 55.0616 114.231 54.1534C114.008 53.3175 113.957 52.3067 113.876 51.3676C113.79 50.3806 113.666 49.3262 113.329 48.1914L113.329 48.1885C111.253 41.1208 108.724 36.5929 104.259 30.7698L104.259 30.7689C103.163 29.351 102.398 28.7069 101.093 27.3629L101.094 27.3618C100.604 26.867 100.164 26.2016 100.322 25.4189C100.473 24.6695 101.092 24.2659 101.474 24.0631C101.901 23.8372 102.412 23.668 102.813 23.5363C103.264 23.3878 103.574 23.285 103.777 23.1802L103.779 23.179C104.718 22.6947 105.303 21.6234 105.788 20.0212C106.025 19.2379 106.215 18.4164 106.43 17.5544C106.639 16.7143 106.872 15.8422 107.186 15.054C109.508 9.19591 114.522 3.09674 121.185 1.60113L121.185 1.60015Z" fill="#88888A" stroke="black" stroke-width="2"/>
<path d="M48.4941 21.7853C59.0169 12.1828 74.1647 8.53638 87.4492 11.6661C100.432 14.7301 109.736 24.4062 115.145 36.8956V36.8966C121.128 50.7253 119.952 65.3428 111.76 77.8722L111.364 78.4669C109.921 80.6026 108.913 81.787 108.029 82.7462C107.145 83.7058 106.473 84.3524 105.598 85.5118L105.595 85.5148C104.657 86.7444 104.252 88.2327 103.979 89.9406C103.718 91.5669 103.568 93.5515 103.082 95.3038C102.64 96.9301 102.147 98.1803 101.233 99.0646C100.303 99.965 99.0773 100.355 97.5244 100.627L97.5234 100.625C96.3205 100.843 95.1562 100.784 94.2822 100.348C93.8647 100.14 93.4864 99.8279 93.2363 99.3956C92.8904 100.662 92.2223 101.941 90.8936 102.997L90.8926 102.998C89.439 104.15 87.2226 104.56 85.1904 104.666C83.1088 104.775 80.9873 104.575 79.5254 104.322V104.323C77.8943 104.046 76.8969 103.148 76.3877 101.942C76.3575 101.87 76.3294 101.797 76.3027 101.724C76.2699 101.833 76.2327 101.941 76.1895 102.046C75.7744 103.051 74.9424 103.673 73.7129 104.137L73.7139 104.138C72.2828 104.69 70.0078 104.839 67.8848 104.707C65.7697 104.576 63.5071 104.148 62.1406 103.339L62.1387 103.338C60.3256 102.26 59.5222 100.519 59.1523 98.8517C59.0734 99.1408 58.9208 99.4423 58.624 99.6866C58.1103 100.109 57.4085 100.143 56.8203 100.127H56.8154C54.1026 100.038 50.8142 99.4122 49.6299 96.0031V96.0021C48.995 94.2153 48.829 92.2267 48.5938 90.5109C48.364 88.8351 48.0663 87.353 47.332 86.0968L47.1787 85.8488C46.5086 84.8143 45.5673 83.8024 44.5098 82.6681C43.4769 81.5603 42.3463 80.3479 41.4326 78.9952C37.6719 73.4355 35.0784 66.8861 34.1211 60.1036L34.04 59.4874C33.2633 53.0891 34.4565 46.0336 36.917 39.5294C39.4574 32.8142 43.379 26.6071 47.9971 22.2472L48.4941 21.7853Z" fill="#CFC1BF" stroke="black" stroke-width="2"/>
<path d="M131.789 80.916C132.038 80.9181 132.249 81.1034 132.281 81.3506C132.361 81.9596 132.451 82.9657 132.618 83.9707C132.701 84.4676 132.799 84.944 132.917 85.3438C133.039 85.7562 133.168 86.0336 133.285 86.1777H133.286C135.082 88.3803 135.663 89.105 136.718 90.4551C137.355 91.2703 138.746 93.0804 139.811 94.4785C140.874 95.876 142.017 97.3665 142.349 97.792C142.683 98.2207 143.488 99.259 144.138 100.099C144.828 100.991 145.573 101.934 146.166 102.674C146.463 103.044 146.721 103.362 146.915 103.597C147.012 103.714 147.092 103.81 147.152 103.879C147.207 103.942 147.233 103.97 147.238 103.976L147.239 103.977C147.408 104.128 147.476 104.314 147.505 104.462C147.515 104.515 147.519 104.569 147.522 104.619L152.378 110.159C152.507 110.307 152.538 110.516 152.457 110.694C152.376 110.873 152.198 110.988 152.002 110.988H147.028L147.03 110.488C147.029 110.988 147.028 110.988 147.027 110.988H146.972C146.934 110.988 146.877 110.988 146.803 110.987C146.654 110.987 146.433 110.987 146.144 110.986C145.566 110.985 144.716 110.982 143.632 110.979C141.463 110.972 138.351 110.964 134.584 110.954C127.049 110.934 116.888 110.906 106.387 110.879C85.3836 110.825 63.0191 110.773 57.5664 110.78C56.204 110.782 43.0579 110.834 30.251 110.886C23.8478 110.912 17.5297 110.937 12.8125 110.956C10.454 110.966 8.49571 110.974 7.12695 110.979C6.44256 110.982 5.90494 110.985 5.53906 110.986C5.35641 110.987 5.21643 110.987 5.12207 110.987C5.07486 110.987 5.03863 110.988 5.01465 110.988H4.97949H4.97852H1.07031C0.867481 110.988 0.684424 110.865 0.607422 110.678C0.53076 110.49 0.574782 110.275 0.71875 110.133L4.60352 106.299L5.21484 105.567L5.80273 104.854C6.00787 104.603 6.20573 104.357 6.34668 104.179C6.63392 103.816 7.1891 103.131 7.58203 102.654C7.97199 102.181 8.90254 101.036 9.64941 100.11L12.0098 97.1855V97.1846C12.5599 96.5029 13.2913 95.5903 13.6348 95.1562L13.6357 95.1553C13.9827 94.7172 14.5965 93.9566 15.002 93.4639C15.7243 92.5864 16.8972 91.1417 18.8965 88.665C20.1161 87.1541 20.5335 86.3899 20.5508 85.6611C20.2808 84.5534 20.1823 83.3197 20.29 82.29C20.3152 82.0494 20.338 81.8603 20.3604 81.7324C20.3701 81.6766 20.3855 81.599 20.4102 81.5312C20.4172 81.5119 20.4292 81.4824 20.4473 81.4492C20.4617 81.4228 20.5 81.3555 20.5732 81.2949C20.6579 81.2251 20.8254 81.1394 21.0322 81.1973C21.2038 81.2454 21.2906 81.3654 21.3184 81.4072C21.376 81.494 21.3953 81.5814 21.3994 81.5996C21.4076 81.6357 21.4123 81.6717 21.416 81.7012C21.4235 81.7614 21.4294 81.8343 21.4336 81.9141C21.442 82.0755 21.4469 82.3001 21.4492 82.583C21.4754 85.749 22.9363 88.4504 26.4355 91.5039C30.3454 94.9157 37.3865 98.8435 41.9307 100.155C44.0557 100.769 45.6579 101.005 47.0605 100.874C48.4508 100.745 49.687 100.25 51.0742 99.3291C54.1612 97.2787 55.701 94.6044 55.7393 91.3477C55.7408 91.2187 55.7425 91.1145 55.7451 91.0352C55.7473 90.969 55.7501 90.8827 55.7627 90.8145C55.7662 90.7956 55.7746 90.7562 55.792 90.7109C55.8009 90.6879 55.8177 90.6493 55.8467 90.6064C55.8739 90.5662 55.9316 90.4938 56.0322 90.4414C56.1481 90.3811 56.2824 90.3674 56.4072 90.4043C56.5157 90.4364 56.5858 90.4972 56.6201 90.5312C56.6846 90.5953 56.7165 90.6619 56.7246 90.6787C56.7596 90.7518 56.7816 90.8448 56.79 90.8789V90.8799C56.8296 91.0406 56.843 91.2529 56.8467 91.458C56.8505 91.6747 56.8437 91.9249 56.8281 92.1807C56.805 92.5604 56.7613 92.9727 56.7012 93.3252L56.6357 93.6543C56.1637 95.6693 55.4241 97.121 54.1025 98.5869L53.8301 98.8809C53.7261 98.9901 53.6452 99.0763 53.582 99.1465C54.3497 99.641 55.4175 100.05 56.3418 100.257C56.816 100.363 57.2239 100.409 57.5146 100.398C57.6529 100.393 57.741 100.374 57.79 100.357L57.874 100.188L57.9082 100.129C57.9975 99.9964 58.1461 99.9129 58.3086 99.9082C58.4943 99.9028 58.6677 100.001 58.7588 100.163L58.9707 100.54C59.3111 101.145 60.1886 101.976 61.4531 102.802C65.1183 105.194 70.1775 105.612 74.4883 103.853C74.769 103.738 74.9491 103.663 75.0801 103.595C75.2048 103.53 75.2419 103.491 75.2578 103.471C75.2735 103.45 75.301 103.406 75.3311 103.271C75.3628 103.128 75.3877 102.936 75.4248 102.638C75.4374 102.536 75.4566 102.402 75.501 102.297C75.5133 102.268 75.541 102.208 75.5918 102.148C75.6385 102.094 75.7709 101.963 75.9893 101.966C76.2079 101.968 76.337 102.103 76.3818 102.158C76.4311 102.219 76.4573 102.279 76.4688 102.308C76.5102 102.413 76.5254 102.542 76.5342 102.631C76.5449 102.74 76.5525 102.875 76.5557 103.03C76.5613 103.307 76.6022 103.394 76.6416 103.446C76.6959 103.518 76.8176 103.615 77.167 103.776L77.3525 103.857C78.3135 104.254 79.7494 104.525 81.2988 104.622C82.9439 104.725 84.6537 104.629 85.9639 104.316C87.5719 103.933 89.4119 103.194 90.9365 102.384C91.6979 101.979 92.3702 101.562 92.8896 101.171C93.4242 100.768 93.7443 100.43 93.8682 100.195L93.9746 99.9932C94.0584 99.8339 94.2215 99.7323 94.4014 99.7266C94.5812 99.7209 94.75 99.8123 94.8438 99.9658L94.9316 100.109C94.9387 100.112 94.9477 100.117 94.96 100.121C95.0301 100.144 95.1458 100.163 95.3115 100.169C95.6406 100.18 96.0812 100.132 96.5605 100.031C97.0367 99.9314 97.5294 99.784 97.959 99.6074C98.3021 99.4663 98.5805 99.3138 98.7783 99.1689C98.7206 99.1046 98.6507 99.0259 98.5625 98.9287C98.0119 98.3218 97.4959 97.6424 97.2676 97.1943C97.2325 97.1255 97.2014 97.0606 97.1797 97.0117C97.1712 96.9926 97.1553 96.9559 97.1436 96.9189C97.1403 96.9086 97.1341 96.8885 97.1289 96.8633C97.1281 96.8592 97.1065 96.7717 97.127 96.665C97.1374 96.6108 97.1768 96.4545 97.3359 96.3457C97.5136 96.2242 97.6952 96.2573 97.7783 96.2852C97.8572 96.3117 97.9103 96.3509 97.9297 96.3662C97.9511 96.3831 97.9669 96.3994 97.9775 96.4102C97.9991 96.4321 98.0398 96.4806 98.0635 96.5088C98.0986 96.5506 98.1469 96.609 98.2051 96.6787C98.3216 96.8184 98.478 97.0067 98.6465 97.21H98.6475C101.025 100.079 103.982 101.403 107.225 101.115C110.26 100.846 114.023 99.4708 117.705 97.4053C121.382 95.343 124.935 92.6168 127.558 89.6904C130.478 86.4308 130.915 83.8766 131.29 81.3428L131.312 81.2539C131.381 81.0537 131.571 80.9143 131.789 80.916Z" fill="#10080D" stroke="black" stroke-linejoin="round"/>
<path d="M129.271 90.9886C132.287 87.6226 131.553 87.8899 131.935 85.316C132.29 85.8478 132.166 85.5985 132.896 86.4941C134.691 88.6954 135.269 89.4166 136.322 90.7628C136.957 91.5754 138.347 93.3835 139.411 94.7811C140.474 96.1784 141.618 97.6721 141.952 98.1C142.286 98.5279 143.091 99.565 143.741 100.405C145.125 102.194 146.724 104.188 146.903 104.348C147.027 104.46 147.028 104.638 147.028 104.816L152 110.488H147.028C147.028 110.488 68.4716 110.266 57.5637 110.28C54.8385 110.284 4.97465 110.488 4.97465 110.488H0.890625L4.97465 106.633L5.59649 105.888C5.93883 105.478 6.45129 104.849 6.73611 104.49C7.02057 104.13 7.57387 103.447 7.96558 102.972C8.35729 102.497 9.28916 101.35 10.0364 100.424L12.3966 97.499C12.9474 96.8166 13.6804 95.9018 14.0252 95.4661C14.37 95.0307 14.9823 94.2727 15.3861 93.782C16.1102 92.9024 17.2843 91.4555 19.2837 88.9787C19.5248 88.68 19.6651 88.4262 19.7414 88.2245C19.5309 87.4561 19.9983 87.5458 19.7414 88.2245C19.7885 88.3963 19.8695 88.611 20 88.8716C39.8341 100.789 40.438 80.2634 44 83.3716C46.3213 85.3973 46.952 86.5944 46.875 86.9608C50.2043 89.6563 49.7228 101.14 52.3849 99.3716C53.0248 98.9465 51.8479 102.548 52.3849 102.157C53.9787 103.612 57.5662 104.236 57.8894 103.575L58.2445 103.22L58.4221 103.398C58.8231 104.11 59.8029 105.219 61.0856 106.057C64.8972 108.544 70.128 109.115 74.5806 107.297C75.6723 106.852 75.9092 107.04 76.0534 105.879C76.0662 106.509 76.1745 106.79 76.889 107.12C78.9637 108.077 83.5555 108.484 86.3 107.829C89.6145 107.038 93.5788 104.746 94.2905 103.398C94.6918 104.056 98.4452 102.26 99.4726 101.302C102.314 103.607 104.571 84.6758 108 84.3716C115.5 96.3716 123.941 96.9367 129.271 90.9886Z" fill="#2F2A2E"/>
<path d="M122.701 56.9889C122.625 57.0651 123.313 51.246 123.411 51.28C123.322 51.8927 123.593 52.0483 124.164 52.3181C131.843 55.9408 140.938 53.5917 146.673 46.5047L146.969 46.1392L150.224 40.4666C150.224 40.4666 150.47 42.8634 150.224 44.3665C149.913 46.2698 148.448 48.9755 148.448 48.9755C148.32 49.1283 147.215 50.8461 146.85 51.28C144.495 54.0838 143.121 56.0663 138.505 56.9889C134.543 57.7804 127.318 59.0799 123.767 57.3072C123.533 57.1821 122.72 56.9697 122.701 56.9889Z" fill="#67656B"/>
<g filter="url(#filter0_d_0_542)">
<circle cx="58" cy="57.8716" r="14" fill="white"/>
<circle cx="58" cy="57.8716" r="11.5" stroke="#F8F8F8" stroke-width="5"/>
</g>
<g filter="url(#filter1_d_0_542)">
<circle cx="94" cy="57.8716" r="14" fill="white"/>
<circle cx="94" cy="57.8716" r="11.5" stroke="#F8F8F8" stroke-width="5"/>
</g>
<ellipse cx="93.0641" cy="66.3716" rx="3.0625" ry="3.5" fill="#282828"/>
<ellipse cx="57.0641" cy="66.3716" rx="3.0625" ry="3.5" fill="#282828"/>
<path d="M141.505 64.0722C141.5 62.135 140.446 59.4561 139.08 57.9099C138.786 57.5763 138.889 57.5734 138.146 57.9344C133.867 60.0134 127.533 59.9808 123.32 57.8581C123.035 57.7146 122.953 57.694 122.91 57.7571C122.813 57.9021 122.947 59.3997 123.246 61.4996C124.052 67.1698 124.118 67.8005 124.135 70.0065L124.147 71.5409L124.774 71.7558C127.994 72.8591 130.417 75.3604 131.526 78.7243C131.784 79.5061 131.87 79.6592 131.935 79.4504C131.954 79.3922 132.05 79.1075 132.15 78.8172C132.251 78.5272 132.398 77.9755 132.477 77.5908C132.743 76.3084 132.933 76.0638 134.439 75.064C137.35 73.1307 139.466 70.9673 140.324 69.0474C141.014 67.5048 141.508 65.4201 141.505 64.0722Z" fill="#88888A"/>
<path d="M11.471 67.6583C10.4841 65.023 11.1251 61.0528 13.0353 57.9708C13.519 57.1905 13.4913 57.2039 14.034 57.4755C14.7694 57.8432 16.7653 58.5881 17.303 58.6955C17.4493 58.7249 17.8822 58.8157 18.2647 58.8976C20.4924 59.3748 23.4485 59.4627 25.2938 59.1071C25.4724 59.0727 25.965 58.9798 26.3883 58.9008C26.8116 58.8217 27.3841 58.6905 27.6608 58.6094C28.3419 58.409 28.3121 58.3491 28.3121 59.9112C28.3121 61.4336 28.2169 62.5345 27.9577 64.0129C27.8976 64.354 27.8046 64.9259 27.751 65.2832C27.6973 65.6406 27.6164 66.1458 27.5716 66.4061C27.1149 69.0442 27.0055 71.6667 27.2957 73.0143C27.3717 73.3664 27.425 73.6624 27.4139 73.6717C27.4033 73.6812 27.1717 73.7993 26.899 73.934C26.1337 74.313 25.1716 74.9087 24.694 75.2997C23.4205 76.3421 22.2382 77.7627 21.6956 78.9036C21.344 79.6425 20.9729 80.5334 20.9722 80.6395C20.9715 80.7781 20.8465 81.1489 20.8003 81.1489C20.6583 81.1489 20.2236 79.9704 20.1121 79.2833C20.0662 79.0015 20.0126 78.7193 19.9924 78.6565C19.9473 78.5143 19.9924 77.5935 19.9071 77.2389C19.552 76.5298 19.2821 76.2651 19.2615 76.1999C19.1447 76.0676 18.8623 75.8464 18.6347 75.7085C14.9133 73.4518 12.7157 70.9825 11.471 67.6583Z" fill="#88888A"/>
<path d="M27.3487 53.0527L27.3153 53.0645C27.351 53.4297 27.5557 54.6538 27.7038 55.3572C27.8235 55.9259 28.0572 56.7899 28.0589 56.9526V57.4844L27.1711 57.6617C23.4422 58.0162 20.0685 58.5481 15.0373 56.5091C12.0013 55.4313 9.05935 53.5845 5.92246 50.3933C5.7108 50.1192 5.41107 49.7583 5.25659 49.5916C5.25659 49.5916 4.04267 48.3542 3.55479 47.38C2.48939 45.2528 1.60156 41.5301 1.60156 41.5301V38.3392C1.60156 38.3392 5.22747 45.7995 5.68559 46.3164C6.69132 47.4513 8.49327 49.0052 9.71031 49.9185C9.98695 50.1263 10.3012 50.3713 10.4081 50.4627C10.515 50.5546 10.7281 50.6964 10.8815 50.7776C11.035 50.8591 11.3336 51.03 11.5453 51.1573C12.7151 51.8625 13.6668 52.2982 15.0373 52.7563C19.1636 54.1361 22.9866 54.317 26.6384 53.3051L27.3153 53.0645C27.3029 52.9377 27.3109 52.9145 27.3487 53.0527Z" fill="#67656B"/>
<path d="M47.5117 101.802L46.8708 101.802L41.3073 110.488H42.0163L47.5117 101.802Z" fill="black"/>
<path d="M103.707 101.27L105.125 101.625L110.621 110.311H109.734L103.707 101.27Z" fill="black"/>
<path d="M69.9593 79.0903C70.6106 78.7929 70.8159 78.7046 70.492 78.3812C70.0566 77.9466 69.3186 78.5092 68.8939 79.4449C68.5203 80.2674 68.2735 80.211 69.0715 79.6221C69.2696 79.4757 69.7292 79.1956 69.9593 79.0903Z" fill="#10080D"/>
<path d="M83.1165 79.5858C82.8473 79.0316 82.436 78.5534 82.0816 78.3821C81.7194 78.207 81.7117 78.1706 81.5011 78.3812C81.3235 78.9131 81.5135 78.9861 82.3889 79.4449C82.7299 79.6236 82.9422 79.8565 83.0992 79.9767C83.6024 80.3617 83.4783 80.3303 83.1165 79.5858Z" fill="#10080D"/>
<path d="M105.993 21.5121C106.223 20.3981 106.428 19.9219 106.877 18.5582C107.17 17.6681 107.149 17.3426 107.231 17.3419C109.884 2.92017 138.565 -13.0823 143.668 17.244C143.736 17.649 143.833 18.1303 143.833 18.6622C144.543 21.6758 144.413 25.7579 143.367 28.859L143.668 30.1999L143.269 29.7533C143.345 29.8587 143.86 30.4635 144.413 31.0968C144.967 31.7305 145.74 32.5632 145.964 32.8438C146.188 33.1244 150.124 37.603 150.566 41.4941C151.113 46.3163 146.384 52.2402 146.142 52.5208C144.883 53.9766 143.656 55.5344 140.282 56.598C138.974 57.2858 139.453 56.8867 140.158 57.8272C144.271 63.3199 141.839 71.9649 135.645 76.1228C134.94 76.5963 134.995 76.4803 135.011 77.4644C135.048 79.7512 134.668 82.8331 133.636 85.6605C133.556 85.9254 133.463 86.1666 133.357 86.3794C133.455 86.1421 133.548 85.9022 133.636 85.6605C134.357 83.2772 134.09 78.9729 134.301 76.133C134.283 75.9789 134.324 75.9422 134.942 75.566C138.988 73.1023 141.727 68.9472 141.722 64.0824C141.719 61.5 140.192 58.9716 138.401 57.2355C138.215 57.0554 138.087 57.0785 137.441 57.3071C133.267 58.7833 127.458 59.1507 123.591 57.3071C123.089 57.068 122.702 57.2035 122.511 56.8739C122.413 56.8413 122.435 56.6176 122.511 56.5445C122.771 56.5445 123.598 56.7538 123.831 56.8739C128.423 58.253 134.998 57.9916 140.158 55.1732C142.44 53.9262 144.335 52.7286 146.498 50.1819L149.328 46.0117C149.328 46.0117 150.248 45.1212 150.212 41.4941C150.18 38.277 146.675 34.1963 146.675 34.1963C146.144 33.5013 146.431 33.8184 145.586 32.8013C144.174 31.1002 143.31 30.125 142.821 29.6784C142.303 29.2049 142.316 29.293 142.644 28.4791C143.788 25.6477 141.384 13.9324 140.13 10.0442C139.039 8.02593 135.531 1.35635 125.803 2.57265C120.591 3.22426 117.359 4.52902 113.598 8.13285C110.393 11.2047 107.761 17.1682 107.761 17.1682C107.408 18.2107 105.955 21.5217 105.816 22.3809C105.793 22.521 105.282 23.2642 105.124 22.9166C105.073 22.8051 105.764 22.6193 105.993 21.5121Z" fill="black"/>
<path d="M9.00828 26.7474C8.31689 24.0288 8.25504 20.2966 8.83481 16.2831L8.90093 15.8258C8.90093 15.8258 10.9806 7.91849 14.742 4.83506C18.592 1.67896 22.0135 1.18641 26.9941 1.28965C31.6427 1.38602 34.5489 2.17343 38.3583 4.83506C40.9306 6.63232 42.4037 7.90959 43.8629 10.685C44.8502 12.5629 46.36 15.9122 46.36 15.9122C46.6049 16.0714 47.3084 19.1247 47.4097 20.7894C47.4594 21.6111 47.6727 21.9188 48.4796 22.2076C49.1674 22.4535 48.641 22.9975 48.1245 23.4622C46.6187 24.8165 44.2481 27.7024 42.4423 30.5393C41.4794 32.0522 41.3754 32.0362 42.2648 30.5393C43.2704 28.8466 44.2554 27.3437 45.6385 25.753C46.0136 25.3219 46.6113 24.6498 46.8815 24.3348C47.1517 24.0198 47.4304 23.6116 47.5918 23.4485C47.7535 23.2853 48.02 23.1273 48.1245 22.9166C48.2491 22.6654 48.3475 22.5774 48.387 22.5518C48.3705 22.5569 48.3428 22.5621 48.302 22.5621C48.0433 22.5621 47.122 22.1684 47.0591 21.3212C46.9371 19.6756 46.682 17.9759 46.2739 16.7122C46.2082 16.5083 45.9755 15.9596 45.9937 15.9122C46.0665 15.9122 42.6519 8.62281 36.9378 5.01233C32.5985 2.27058 25.7511 1.82146 21.312 2.70781C14.8651 2.23348 10.1353 13.2977 10.1253 13.344C9.44704 16.4682 8.84512 23.5627 9.77858 26.4876C10.0029 27.1905 10.0093 27.153 9.61364 27.4502C9.17997 27.7762 7.4467 29.4363 6.88719 30.062C6.50222 30.4923 4.77798 31.7513 4.08802 32.8438C4.08802 32.8438 2.80918 34.4717 2.31235 35.6801C1.61968 37.3648 1.53697 38.4692 1.60209 40.2891C1.66814 42.1352 1.95174 43.1947 2.66749 44.8982C3.31294 46.4343 4.90331 48.5332 4.90331 48.5332C5.05759 48.696 5.35689 49.0538 5.56875 49.3277C7.489 51.812 10.6373 54.9904 13.6766 56.0662C18.0688 57.6209 21.8043 58.8493 25.7511 57.8389L27.8819 57.4844L27.5162 55.7866C27.5144 55.6242 27.4149 55.0272 27.2951 54.4595C27.0953 53.5136 27.1483 52.163 27.2951 52.6981C27.3598 52.9345 27.8874 55.3425 28.0618 56.4207C28.2086 57.1346 28.4818 59.4952 28.4146 59.4343C28.3947 59.4163 28.317 58.9157 28.237 58.548C28.0458 57.6686 27.9723 57.6499 27.3492 57.8389C23.4973 59.0053 18.6179 58.1077 14.5644 56.598C14.1628 56.4483 14.0317 56.2435 13.5668 56.2768C12.9663 56.0662 12.9388 56.2583 12.7888 56.4207C12.5179 56.7138 12.1638 57.6534 11.8485 58.1934C11.0529 60.1158 10.2336 64.6181 10.5457 66.631C11.2069 70.8958 13.1811 74.0692 16.894 76.836C17.4613 77.2585 17.5207 77.3672 17.1549 77.3127L16.8933 77.2737L16.8229 77.5009C16.701 77.8952 16.6825 79.527 16.7909 80.3031C17.134 82.7581 18.3496 84.7831 20.069 86.2022C20.921 86.9054 20.4241 87.4431 20.069 87.2658C18.0531 85.2454 16.2919 82.2831 16.2919 79.016V77.9412L15.7153 77.4808C13.1616 75.4406 11.274 72.5722 10.4874 69.5351C9.64955 66.2998 10.6165 59.9365 12.0785 57.3071C12.7489 56.0706 13.0631 56.5181 11.8485 55.907C9.15864 54.553 6.53919 52.419 4.82973 50.1891C4.82973 50.1891 3.02168 47.1849 2.31235 45.0754C1.63719 43.0676 1.19071 41.8746 1.24696 39.7573C1.29203 38.0608 1.48075 37.0694 2.13479 35.5028C2.56497 34.4725 3.55532 33.021 3.55532 33.021C3.55532 32.8643 4.45187 32.163 4.62072 31.9574C4.74584 31.8056 5.28354 31.363 5.50855 31.0711C6.08192 30.3272 7.5281 29.2133 8.39403 28.2883C9.21019 27.4163 9.19064 27.4647 9.00828 26.7474Z" fill="black"/>
<path d="M39.4237 35.6801C39.5378 35.3538 40.6084 33.3874 41.0218 32.6665C41.6425 31.5854 41.7178 31.6918 41.0218 33.021C40.6862 33.6616 40.1921 34.4926 39.9564 34.971C39.5508 35.7942 39.2957 36.046 39.4237 35.6801Z" fill="black"/>
<path d="M39.0661 36.2161L39.0686 36.2119C39.15 36.0753 39.166 36.324 39.0686 36.5665C38.8176 37.1893 38.891 37.2755 38.5359 37.4528C38.5359 37.1018 38.9789 36.3617 39.0661 36.2161Z" fill="black"/>
<defs>
<filter id="filter0_d_0_542" x="36" y="39.8716" width="44" height="44" filterUnits="userSpaceOnUse" color-interpolation-filters="sRGB">
<feFlood flood-opacity="0" result="BackgroundImageFix"/>
<feColorMatrix in="SourceAlpha" type="matrix" values="0 0 0 0 0 0 0 0 0 0 0 0 0 0 0 0 0 0 127 0" result="hardAlpha"/>
<feOffset dy="4"/>
<feGaussianBlur stdDeviation="4"/>
<feComposite in2="hardAlpha" operator="out"/>
<feColorMatrix type="matrix" values="0 0 0 0 0 0 0 0 0 0 0 0 0 0 0 0 0 0 0.15 0"/>
<feBlend mode="normal" in2="BackgroundImageFix" result="effect1_dropShadow_0_542"/>
<feBlend mode="normal" in="SourceGraphic" in2="effect1_dropShadow_0_542" result="shape"/>
</filter>
<filter id="filter1_d_0_542" x="72" y="39.8716" width="44" height="44" filterUnits="userSpaceOnUse" color-interpolation-filters="sRGB">
<feFlood flood-opacity="0" result="BackgroundImageFix"/>
<feColorMatrix in="SourceAlpha" type="matrix" values="0 0 0 0 0 0 0 0 0 0 0 0 0 0 0 0 0 0 127 0" result="hardAlpha"/>
<feOffset dy="4"/>
<feGaussianBlur stdDeviation="4"/>
<feComposite in2="hardAlpha" operator="out"/>
<feColorMatrix type="matrix" values="0 0 0 0 0 0 0 0 0 0 0 0 0 0 0 0 0 0 0.15 0"/>
<feBlend mode="normal" in2="BackgroundImageFix" result="effect1_dropShadow_0_542"/>
<feBlend mode="normal" in="SourceGraphic" in2="effect1_dropShadow_0_542" result="shape"/>
</filter>
</defs>
</svg>
